<?xml version="1.0" encoding="UTF-8"?>
<svg width="29px" height="29px" viewBox="0 0 29 29"  version="1.1" xmlns="http://www.w3.org/2000/svg" xmlns:xlink="http://www.w3.org/1999/xlink">
    <!-- Generator: Sketch 63.1 (92452) - https://sketch.com -->
    <title>Close-Icon</title>
    <desc>Created with Sketch.</desc>
    <g id="Close-Icon" stroke="none" stroke-width="1" fill="none" fill-rule="evenodd">
        <path d="M25.2539674,0.665377249 L14.4991752,11.399397 L3.74438314,0.643381307 C2.88663899,-0.214460436 1.50105227,-0.214460436 0.643308117,0.643381307 C-0.214436039,1.50122305 -0.214436039,2.8869674 0.643308117,3.74480915 L11.3981002,14.5008248 L0.643308117,25.2568405 C-0.214436039,26.1146823 -0.214436039,27.5004266 0.643308117,28.3582684 C1.50105227,29.2139105 2.88663899,29.2139105 3.74438314,28.3582684 L14.4991752,17.6022527 L25.2539674,28.3582684 C26.1117115,29.2139105 27.4972982,29.2139105 28.3550424,28.3582684 C29.2149859,27.5004266 29.2149859,26.1146823 28.3550424,25.2568405 L17.6002503,14.5008248 L28.3550424,3.74480915 C29.1907931,2.90896335 29.1907931,1.50122305 28.3550424,0.665377249 C27.4972982,-0.192464494 26.1117115,-0.192464494 25.2539674,0.665377249 Z" id="Fill-1" fill="#ffffff"></path>
    </g>
</svg>
