<?xml version="1.0" encoding="UTF-8"?>
<svg width="29px" height="29px" viewBox="0 0 29 29" version="1.1" xmlns="http://www.w3.org/2000/svg" xmlns:xlink="http://www.w3.org/1999/xlink">
    <!-- Generator: Sketch 63.1 (92452) - https://sketch.com -->
    <title>Facebook-Icon</title>
    <desc>Created with Sketch.</desc>
    <g id="Facebook-Icon" stroke="none" stroke-width="1" fill="none" fill-rule="evenodd">
        <path d="M16.825,26.75 L16.825,15.825 L21.45,15.825 L21.45,11.15 L16.825,11.15 L16.825,7.85 C16.7916667,7.43333333 16.9208333,7.09583333 17.2125,6.8375 C17.5041667,6.57916667 17.8416667,6.45 18.225,6.45 L18.225,6.45 L21.45,6.45 L21.45,1.75 L18.225,1.75 C16.5083333,1.75 15.075,2.39166667 13.925,3.675 C13.3916667,4.25833333 12.9666667,5.0625 12.65,6.0875 C12.3333333,7.1125 12.175,8.13333333 12.175,9.15 L12.175,9.15 L12.175,11.15 L7.55,11.15 L7.55,15.825 L12.175,15.825 L12.175,26.75 L16.825,26.75 Z" id="" fill="#000000" fill-rule="nonzero"></path>
    </g>
</svg>