<?xml version="1.0" encoding="UTF-8"?>
<svg width="29px" height="29px" viewBox="0 0 29 29" version="1.1" xmlns="http://www.w3.org/2000/svg" xmlns:xlink="http://www.w3.org/1999/xlink">
    <!-- Generator: Sketch 63.1 (92452) - https://sketch.com -->
    <title>Mail-Icon</title>
    <desc>Created with Sketch.</desc>
    <g id="Mail-Icon" stroke="none" stroke-width="1" fill="none" fill-rule="evenodd">
        <path d="M14.275,13.6 C14.7583333,13.6 15.1333333,13.5166667 15.4,13.35 L15.4,13.35 L19.95,10.9 C22.9166667,9.3 24.5166667,8.45 24.75,8.35 C25.0166667,8.21666667 25.2166667,8.03333333 25.35,7.8 C25.65,7.26666667 25.4833333,7 24.85,7 L24.85,7 L3.7,7 C3.3,7 3.08333333,7.11666667 3.05,7.35 C2.98333333,7.71666667 3.21666667,8.05 3.75,8.35 C3.98333333,8.45 5.58333333,9.3 8.55,10.9 L8.55,10.9 L13.1,13.35 C13.4,13.5166667 13.7916667,13.6 14.275,13.6 Z M24.25,21.5 C24.5166667,21.5 24.7916667,21.3666667 25.075,21.1 C25.3583333,20.8333333 25.5,20.5666667 25.5,20.3 L25.5,20.3 L25.5,11.1 C25.5,10.7666667 25.3333333,10.6833333 25,10.85 L25,10.85 L15.4,15.85 C15.1,16.0166667 14.7166667,16.1 14.25,16.1 C13.7833333,16.1 13.4,16.0166667 13.1,15.85 L13.1,15.85 L3.5,10.85 C3.16666667,10.6833333 3,10.7666667 3,11.1 L3,11.1 L3,20.3 C3,20.5666667 3.14166667,20.8333333 3.425,21.1 C3.70833333,21.3666667 3.98333333,21.5 4.25,21.5 L4.25,21.5 L24.25,21.5 Z" id="" fill="#4A4A4A" fill-rule="nonzero"></path>
    </g>
</svg>
