<?xml version="1.0" encoding="UTF-8"?>
<svg width="29px" height="29px" viewBox="0 0 29 29" version="1.1" xmlns="http://www.w3.org/2000/svg" xmlns:xlink="http://www.w3.org/1999/xlink">
    <!-- Generator: Sketch 63.1 (92452) - https://sketch.com -->
    <title>Teilen-Icon</title>
    <desc>Created with Sketch.</desc>
    <g id="Teilen-Icon" stroke="none" stroke-width="1" fill="none" fill-rule="evenodd">
        <path d="M22.8373494,20.497992 C21.7309237,20.497992 20.7409639,20.934739 19.9839357,21.6189759 L9.60391566,15.5773092 C9.67670683,15.2424699 9.73493976,14.9076305 9.73493976,14.5582329 C9.73493976,14.2088353 9.67670683,13.873996 9.60391566,13.5391566 L19.8674699,7.55572289 C20.6536145,8.28363454 21.687249,8.73493976 22.8373494,8.73493976 C25.2540161,8.73493976 27.2048193,6.78413655 27.2048193,4.36746988 C27.2048193,1.95080321 25.2540161,0 22.8373494,0 C20.4206827,0 18.4698795,1.95080321 18.4698795,4.36746988 C18.4698795,4.71686747 18.5281124,5.05170683 18.6009036,5.38654618 L8.3373494,11.3699799 C7.55120482,10.6420683 6.51757028,10.1907631 5.36746988,10.1907631 C2.95080321,10.1907631 1,12.1415663 1,14.5582329 C1,16.9748996 2.95080321,18.9257028 5.36746988,18.9257028 C6.51757028,18.9257028 7.55120482,18.4729418 8.3373494,17.7450301 L18.7028112,23.8027108 C18.6300201,24.1069779 18.5863454,24.4287149 18.5863454,24.748996 C18.5863454,27.0914157 20.4934739,29 22.8373494,29 C25.1812249,29 27.0883534,27.0914157 27.0883534,24.748996 C27.0883534,22.4051205 25.1812249,20.497992 22.8373494,20.497992" id="Fill-1" fill="#000000"></path>
    </g>
</svg>