<?xml version="1.0" encoding="UTF-8"?>
<svg width="29px" height="29px" viewBox="0 0 29 29" version="1.1" xmlns="http://www.w3.org/2000/svg" xmlns:xlink="http://www.w3.org/1999/xlink">
    <!-- Generator: Sketch 63.1 (92452) - https://sketch.com -->
    <title>Twitter-Icon</title>
    <desc>Created with Sketch.</desc>
    <g id="Twitter-Icon" stroke="none" stroke-width="1" fill="none" fill-rule="evenodd">
        <path d="M9.875,24.1 C12.8583333,24.1 15.4833333,23.3541667 17.75,21.8625 C20.0166667,20.3708333 21.7,18.525 22.8,16.325 C23.9,14.125 24.45,11.8666667 24.45,9.55 L24.45,9.55 L24.45,8.875 C25.4833333,8.10833333 26.3333333,7.225 27,6.225 C26.05,6.625 25.075,6.9 24.075,7.05 C25.175,6.36666667 25.9166667,5.425 26.3,4.225 C25.1666667,4.825 24.075,5.21666667 23.025,5.4 C22.0583333,4.35 20.8416667,3.825 19.375,3.825 C17.9083333,3.825 16.675,4.325 15.675,5.325 C14.675,6.325 14.175,7.53333333 14.175,8.95 C14.175,9.4 14.2333333,9.775 14.35,10.075 C10.05,9.925 6.51666667,8.15 3.75,4.75 C3.26666667,5.61666667 3.025,6.46666667 3.025,7.3 C3.025,9.11666667 3.79166667,10.55 5.325,11.6 C4.40833333,11.5166667 3.64166667,11.3 3.025,10.95 L3.025,10.95 L3.025,11 C3.025,12.2166667 3.40833333,13.3083333 4.175,14.275 C4.925,15.2083333 5.9,15.8 7.1,16.05 C6.7,16.1666667 6.25833333,16.225 5.775,16.225 C5.375,16.225 5.05833333,16.1916667 4.825,16.125 C5.15833333,17.175 5.7625,18.0291667 6.6375,18.6875 C7.5125,19.3458333 8.5,19.6833333 9.6,19.7 C7.75,21.15 5.63333333,21.875 3.25,21.875 C2.75,21.875 2.33333333,21.8583333 2,21.825 C4.33333333,23.3416667 6.95833333,24.1 9.875,24.1 Z" id="" fill="#000000" fill-rule="nonzero"></path>
    </g>
</svg>