<?xml version="1.0" encoding="UTF-8" standalone="no"?>
<svg version="1.1" id="Ebene_1" xmlns="http://www.w3.org/2000/svg" xmlns:xlink="http://www.w3.org/1999/xlink" x="0px" y="0px" width="491.002px" height="65.998px" viewBox="0 0 491.002 65.998" enable-background="new 0 0 491.002 65.998" xml:space="preserve">
<polygon fill="#ffffff" points="5.625,6.649 5.625,62.476 54.56,62.476 54.56,55.314 13.837,55.314 13.837,35.282 46.794,35.282
46.794,28.119 13.837,28.119 13.837,13.816 54.128,13.816 54.128,6.649 "></polygon>
<path fill="#ffffff" d="M169.302,43.428h-26.145l13.22-25.326L169.302,43.428z M188.06,62.767l-28.354-55.83h-6.49l-29.395,55.83
h9.2l6.503-12.267h33.398l6.283,12.267H188.06z"></path>
<g>
<path clip-path="url(#SVGID_2_)" fill="#ffffff" d="M247.776,35.275l22.585-0.091c4.725,0,8.516,0.817,11.371,2.458
c2.854,1.638,4.279,4.45,4.279,7.648c0,2.967-1.527,5.798-4.581,7.558c-2.709,1.638-6.284,2.455-10.719,2.455l-22.935,0.004V35.275
z M247.776,13.809l22.844-0.006c3.759,0,7.038,0.376,9.383,1.574c2.339,1.197,3.514,3.186,3.514,5.528
c0,2.345-1.184,4.351-3.561,5.57c-2.364,1.222-5.659,1.608-9.417,1.608l-22.763,0.028V13.809z M284.934,31.838
c-0.091-0.069-0.141-0.108-0.141-0.108s6.777-2.596,6.654-11.098c0-5.269-3.677-9.542-7.22-11.246
c-3.473-1.671-7.608-2.745-13.431-2.745l-31.232,0.001v55.827h26.039v0.018h8.05c12.506,0,19.641-8.803,19.641-16.654
C293.294,39.427,290.66,34.412,284.934,31.838"></path>
</g>
<polygon fill="#ffffff" points="125.216,6.628 116.305,6.628 94.414,50.881 71.918,6.628 63.005,6.628 91.385,62.497 97.531,62.497
"></polygon>
<polygon fill="#ffffff" points="355.365,62.497 355.365,55.33 318.336,55.33 318.336,6.63 310.031,6.63 310.031,62.497 "></polygon>
<g>
<path clip-path="url(#SVGID_4_)" fill="#ffffff" d="M418.822,41.157V6.629h-8.307v34.61c0,4.998-1.47,8.651-4.412,10.958
c-3.062,2.474-7.818,3.706-14.275,3.706c-6.521,0-11.266-1.218-14.234-3.667c-2.972-2.443-4.457-6.192-4.457-11.248V6.629h-8.307
v34.359c0,14.727,8.999,22.087,26.998,22.087c8.764,0,15.341-1.677,19.727-5.028C416.398,54.371,418.822,48.737,418.822,41.157"></path>
</g>
<polygon fill="#ffffff" points="484.334,13.796 484.334,6.629 431.127,6.629 431.127,13.796 453.619,13.796 453.619,62.5
461.928,62.5 461.928,13.796 "></polygon>
</svg>
